<?xml version="1.0" standalone="no"?><!DOCTYPE svg PUBLIC "-//W3C//DTD SVG 1.1//EN" "http://www.w3.org/Graphics/SVG/1.1/DTD/svg11.dtd"><svg t="1652454453393" class="icon" viewBox="0 0 1024 1024" version="1.1" xmlns="http://www.w3.org/2000/svg" p-id="997" xmlns:xlink="http://www.w3.org/1999/xlink" width="128" height="128"><defs><style type="text/css"></style></defs><path d="M627.4 869.9H328.1c-21.2 8.8-42.8 13.7-64.3 16h363.6c4.4 0 8-3.6 8-8s-3.5-8-8-8z" fill="#fd0222" p-id="998"></path><path d="M33.7 825.2H32s95.4 62.3 203.5 62.3c9.4 0 18.8-0.6 28.3-1.6 21.4-2.3 43-7.2 64.3-16 17.9-7.4 35.5-17.4 52.5-30.6 11.8-9.2 36.3-38.5 46.7-61.9L352 702.1c-0.2 0-125 123.1-318.3 123.1zM360.9 814c-35.3 27.5-77.5 41.5-125.3 41.5-29.6 0-58.4-5.3-84.1-12.6 95.2-23.4 164.4-70.1 198.8-97.2l37.1 37.1c-9.5 13.8-21.1 27-26.5 31.2zM918 169.4S720.5 376.9 680.6 416.7C640.8 456.5 528.4 550 449.5 603.9c-79 53.8-79.7 79.7-79.7 79.7l37.7 37.7 37.7 37.7s25.8-0.7 79.7-79.7c53.8-79 147.3-191.3 187.2-231.1 39.8-39.8 247.3-237.4 247.3-237.4l-20.7-20.7-20.7-20.7zM992 161.6l-12.6-12.5-12.5-12.6-12.6 12.6-9-9.1-12.6 12.5 21.6 21.7 21.7 21.6 12.5-12.6-9.1-9z" fill="#fd0222" p-id="999"></path></svg>